<mxfile host="app.diagrams.net" modified="2024-01-21T18:32:49.357Z" agent="Mozilla/5.0 (Windows NT 10.0; Win64; x64) AppleWebKit/537.36 (KHTML, like Gecko) Chrome/120.0.0.0 Safari/537.36" etag="c7wjRzMcr07FhfDXVgGg" version="22.1.21" type="device">
  <diagram name="Page-1" id="shlyCNfIXENvIiWvKQmi">
    <mxGraphModel dx="701" dy="837" grid="1" gridSize="10" guides="1" tooltips="1" connect="1" arrows="1" fold="1" page="1" pageScale="1" pageWidth="850" pageHeight="1100" math="0" shadow="0">
      <root>
        <mxCell id="0" />
        <mxCell id="1" parent="0" />
        <mxCell id="LuacRAJrv1x_D5dicagy-3" value="" style="edgeStyle=orthogonalEdgeStyle;rounded=0;orthogonalLoop=1;jettySize=auto;html=1;" parent="1" target="LuacRAJrv1x_D5dicagy-2" edge="1">
          <mxGeometry relative="1" as="geometry">
            <mxPoint x="425" y="120" as="sourcePoint" />
          </mxGeometry>
        </mxCell>
        <mxCell id="LuacRAJrv1x_D5dicagy-7" value="" style="edgeStyle=orthogonalEdgeStyle;rounded=0;orthogonalLoop=1;jettySize=auto;html=1;" parent="1" source="LuacRAJrv1x_D5dicagy-2" edge="1">
          <mxGeometry relative="1" as="geometry">
            <mxPoint x="425" y="310" as="targetPoint" />
          </mxGeometry>
        </mxCell>
        <mxCell id="LuacRAJrv1x_D5dicagy-2" value="Ввод исходного массива строк" style="whiteSpace=wrap;html=1;" parent="1" vertex="1">
          <mxGeometry x="365" y="170" width="120" height="60" as="geometry" />
        </mxCell>
        <mxCell id="LuacRAJrv1x_D5dicagy-4" value="Старт" style="rounded=1;whiteSpace=wrap;html=1;" parent="1" vertex="1">
          <mxGeometry x="365" y="60" width="120" height="60" as="geometry" />
        </mxCell>
        <mxCell id="LuacRAJrv1x_D5dicagy-9" value="" style="edgeStyle=orthogonalEdgeStyle;rounded=0;orthogonalLoop=1;jettySize=auto;html=1;" parent="1" target="LuacRAJrv1x_D5dicagy-8" edge="1">
          <mxGeometry relative="1" as="geometry">
            <mxPoint x="425" y="370" as="sourcePoint" />
          </mxGeometry>
        </mxCell>
        <mxCell id="LuacRAJrv1x_D5dicagy-18" value="" style="edgeStyle=orthogonalEdgeStyle;rounded=0;orthogonalLoop=1;jettySize=auto;html=1;" parent="1" source="LuacRAJrv1x_D5dicagy-8" edge="1">
          <mxGeometry relative="1" as="geometry">
            <mxPoint x="425" y="560" as="targetPoint" />
          </mxGeometry>
        </mxCell>
        <mxCell id="LuacRAJrv1x_D5dicagy-8" value="Формирование нового массива строк" style="whiteSpace=wrap;html=1;" parent="1" vertex="1">
          <mxGeometry x="365" y="450" width="120" height="60" as="geometry" />
        </mxCell>
        <mxCell id="LuacRAJrv1x_D5dicagy-13" value="" style="edgeStyle=orthogonalEdgeStyle;rounded=0;orthogonalLoop=1;jettySize=auto;html=1;" parent="1" source="LuacRAJrv1x_D5dicagy-10" target="LuacRAJrv1x_D5dicagy-12" edge="1">
          <mxGeometry relative="1" as="geometry" />
        </mxCell>
        <mxCell id="LuacRAJrv1x_D5dicagy-10" value="Вывод нового массива строк " style="shape=document;whiteSpace=wrap;html=1;boundedLbl=1;" parent="1" vertex="1">
          <mxGeometry x="365" y="560" width="120" height="80" as="geometry" />
        </mxCell>
        <mxCell id="LuacRAJrv1x_D5dicagy-12" value="Конец" style="rounded=1;whiteSpace=wrap;html=1;" parent="1" vertex="1">
          <mxGeometry x="365" y="730" width="120" height="60" as="geometry" />
        </mxCell>
        <mxCell id="LuacRAJrv1x_D5dicagy-14" value="Вывод исходного массива строк" style="shape=document;whiteSpace=wrap;html=1;boundedLbl=1;" parent="1" vertex="1">
          <mxGeometry x="365" y="310" width="120" height="80" as="geometry" />
        </mxCell>
      </root>
    </mxGraphModel>
  </diagram>
</mxfile>
